<?xml version="1.0" encoding="UTF-8" standalone="no"?>
<!-- Created with Inkscape (http://www.inkscape.org/) -->

<svg
    style="background: transparent; background-color: transparent; color-scheme: light dark;"
    width="99.999985"
    height="82"
    viewBox="0 0 26.458329 21.695833"
    version="1.1"
    id="svg1"
    xml:space="preserve"
    inkscape:version="1.4 (86a8ad7, 2024-10-11)"
    sodipodi:docname="logo-algorithm-2.svg"
    xmlns:inkscape="http://www.inkscape.org/namespaces/inkscape"
    xmlns:sodipodi="http://sodipodi.sourceforge.net/DTD/sodipodi-0.dtd"
    xmlns="http://www.w3.org/2000/svg"
    xmlns:svg="http://www.w3.org/2000/svg"><sodipodi:namedview
     id="namedview1"
     pagecolor="#ffffff"
     bordercolor="#000000"
     borderopacity="0.25"
     inkscape:showpageshadow="2"
     inkscape:pageopacity="0.0"
     inkscape:pagecheckerboard="0"
     inkscape:deskcolor="#d1d1d1"
     inkscape:document-units="mm"
     inkscape:zoom="8.3170034"
     inkscape:cx="57.592859"
     inkscape:cy="39.016457"
     inkscape:window-width="2560"
     inkscape:window-height="1369"
     inkscape:window-x="-8"
     inkscape:window-y="-8"
     inkscape:window-maximized="1"
     inkscape:current-layer="layer1" />
  <defs
      id="defs1" />
  <g
      inkscape:label="Слой 1"
      inkscape:groupmode="layer"
      id="layer1"
      transform="translate(-91.86034,-164.19988)"><path
       style="fill:light-dark(rgb(50, 50, 50), rgb(200, 200, 200));stroke-width:0.222777"
       d="m 116.63885,176.74321 -1.67988,0.006 v -0.65016 -0.65017 h -1.71204 -1.71204 l 0.0174,-0.39786 0.0174,-0.39787 1.69461,-0.0156 1.69461,-0.0156 v -0.61799 -0.618 h 1.67988 1.67988 v 1.6753 1.67531 z m 0.0147,-2.57755 -0.86941,-0.0163 v 0.88572 0.88572 h 0.88572 0.88573 l -0.0163,-0.86941 -0.0163,-0.86941 z m -5.76687,1.546 c -0.0719,0.67044 -0.0476,0.64213 -0.51131,0.59457 -0.21841,-0.0224 -0.45096,-0.0534 -0.51677,-0.0689 -0.10474,-0.0246 -0.15989,0.0692 -0.44208,0.75212 -0.17732,0.42915 -0.33039,0.79931 -0.34014,0.82259 -0.01,0.0233 0.14939,0.16856 0.35366,0.32286 0.20426,0.15429 0.39401,0.30019 0.42167,0.32422 0.0641,0.0557 -0.32094,0.57742 -0.74013,1.0027 -0.29519,0.29947 -0.99985,0.87966 -1.06839,0.87966 -0.0156,0 -0.16683,-0.18677 -0.33605,-0.41506 -0.16923,-0.22827 -0.326,-0.40731 -0.34837,-0.39786 -0.0224,0.009 -0.39279,0.16267 -0.82313,0.34049 l -0.78245,0.32331 0.032,0.20718 c 0.12519,0.81153 0.12487,0.81635 -0.0583,0.86736 -0.22009,0.0613 -2.06363,0.0613 -2.28372,0 -0.18321,-0.051 -0.18353,-0.0558 -0.0583,-0.86774 l 0.032,-0.20757 -0.73966,-0.30908 c -0.40682,-0.16999 -0.77633,-0.32314 -0.82114,-0.34034 -0.0514,-0.0197 -0.19739,0.12121 -0.39536,0.38161 l -0.31388,0.41288 -0.17981,-0.10074 c -0.25215,-0.14127 -1.40207,-1.29332 -1.55385,-1.55673 l -0.12573,-0.21818 0.40893,-0.30315 c 0.22491,-0.16673 0.40893,-0.31034 0.40893,-0.31913 0,-0.0375 -0.63893,-1.57453 -0.6656,-1.6012 -0.0162,-0.0161 -0.2483,6.7e-4 -0.51587,0.0372 -0.38675,0.053 -0.49597,0.0513 -0.53274,-0.008 -0.12563,-0.20328 -0.14024,-1.99693 -0.0195,-2.4007 0.0397,-0.13285 0.0582,-0.13739 0.40141,-0.0986 0.19788,0.0223 0.42817,0.0543 0.51175,0.0709 0.14567,0.029 0.1658,-0.003 0.48628,-0.76981 0.18388,-0.44007 0.33432,-0.81226 0.33432,-0.8271 0,-0.0148 -0.16578,-0.15218 -0.3684,-0.3052 -0.20261,-0.15303 -0.38893,-0.2958 -0.41403,-0.31728 -0.14174,-0.12127 1.17947,-1.50418 1.76557,-1.84803 0.0428,-0.0251 0.1768,0.10122 0.34846,0.32851 0.15342,0.20312 0.2963,0.38964 0.31752,0.41449 0.0212,0.0248 0.4044,-0.10604 0.85152,-0.29086 l 0.81293,-0.33604 -0.0404,-0.35751 c -0.0222,-0.19663 -0.0547,-0.42918 -0.0721,-0.51678 -0.0272,-0.13665 -0.008,-0.16594 0.13713,-0.2063 0.21575,-0.0601 1.98702,-0.0615 2.26703,-0.002 l 0.21197,0.0452 -0.0496,0.33795 c -0.0273,0.18588 -0.0634,0.42022 -0.0804,0.52077 l -0.0308,0.18282 0.82877,0.34022 c 0.45582,0.18712 0.8366,0.33031 0.84619,0.3182 0.01,-0.0121 0.15136,-0.2011 0.31505,-0.41997 l 0.29764,-0.39795 0.34551,0.25528 c 0.38552,0.28482 1.23192,1.16107 1.39325,1.44238 l 0.10465,0.18246 -0.39936,0.30233 c -0.21965,0.16628 -0.39936,0.32019 -0.39936,0.34203 0,0.0218 0.14511,0.39264 0.32248,0.824 l 0.32247,0.78429 0.38484,-0.0438 c 0.68207,-0.0776 0.66979,-0.0808 0.71387,0.18454 0.0761,0.45787 0.0986,1.24345 0.0489,1.70653 z m -2.44375,-1.42903 c -0.40495,-2.01674 -2.32976,-3.41003 -4.33216,-3.13586 -0.92079,0.12607 -1.63303,0.47487 -2.27353,1.11341 -1.55637,1.55157 -1.56452,3.99662 -0.0185,5.54266 0.46346,0.46346 0.9781,0.77758 1.61681,0.98683 0.59589,0.19522 1.54713,0.21993 2.14632,0.0558 2.02077,-0.55371 3.26696,-2.54115 2.86103,-4.56279 z m -0.89638,0.81296 h -0.47422 l -0.0628,0.27997 c -0.12928,0.57608 -0.13762,0.55495 0.30158,0.76482 0.21883,0.10456 0.39787,0.21861 0.39787,0.25343 0,0.16252 -0.59048,1.0595 -0.69746,1.0595 -0.0249,0 -0.19672,-0.13499 -0.38182,-0.29997 l -0.33655,-0.29996 -0.24991,0.14814 c -0.49828,0.29537 -0.47844,0.2479 -0.31027,0.74233 0.0818,0.24058 0.14878,0.44354 0.14878,0.45103 0,0.0481 -0.60803,0.20617 -0.91298,0.23742 -0.34994,0.0358 -0.3679,0.0313 -0.40367,-0.10234 -0.0206,-0.0769 -0.0378,-0.29059 -0.0382,-0.47482 -8.9e-4,-0.36159 0.007,-0.3533 -0.4134,-0.43131 -0.11347,-0.0211 -0.25166,-0.051 -0.30709,-0.0666 -0.0766,-0.0215 -0.15101,0.0714 -0.31019,0.38753 -0.11518,0.2287 -0.24475,0.41582 -0.28794,0.41582 -0.0837,0 -0.68124,-0.38331 -0.91517,-0.5871 l -0.1405,-0.12241 0.3026,-0.34791 c 0.16643,-0.19134 0.3026,-0.36367 0.3026,-0.38294 0,-0.0339 -0.41824,-0.68159 -0.4401,-0.68159 -0.006,0 -0.20576,0.0663 -0.44405,0.14736 -0.23829,0.0811 -0.43998,0.14736 -0.44821,0.14736 -0.0515,0 -0.2097,-0.7195 -0.21875,-0.99488 l -0.0109,-0.33134 0.46937,-0.0295 0.46937,-0.0295 0.0733,-0.35366 c 0.0403,-0.19451 0.0744,-0.38091 0.0759,-0.41422 0.001,-0.0333 -0.17014,-0.13581 -0.38124,-0.22777 -0.2111,-0.092 -0.39833,-0.19069 -0.41607,-0.2194 -0.0507,-0.0821 0.31599,-0.72445 0.53458,-0.93632 l 0.19777,-0.19168 0.32897,0.31113 0.32898,0.31113 0.20847,-0.11217 c 0.11466,-0.0617 0.2785,-0.16796 0.36409,-0.23616 l 0.15562,-0.12399 -0.1549,-0.43458 c -0.11476,-0.32197 -0.13668,-0.44595 -0.0846,-0.47846 0.11446,-0.0715 0.84278,-0.22413 1.06922,-0.22413 h 0.2094 v 0.47042 c 0,0.46509 0.002,0.47083 0.1621,0.50673 0.0891,0.02 0.25493,0.0601 0.36839,0.0892 0.3198,0.082 0.32461,0.0787 0.52639,-0.35905 0.1046,-0.22693 0.21892,-0.4126 0.25405,-0.4126 0.17578,0 1.04679,0.6121 1.04679,0.73563 0,0.0371 -0.082,0.14542 -0.18221,0.24064 -0.10022,0.0952 -0.23385,0.24495 -0.29696,0.33274 l -0.11475,0.15961 0.21689,0.32666 c 0.11929,0.17967 0.23551,0.32667 0.25827,0.32667 0.0398,0 0.57627,-0.18196 0.77507,-0.26289 0.12735,-0.0518 0.28,0.3792 0.32794,0.926 l 0.0349,0.39787 z m -1.46664,-0.68817 c -0.23641,-0.5658 -0.85248,-0.96157 -1.49494,-0.96037 -0.60906,0.001 -1.08568,0.27833 -1.40105,0.81481 -0.14143,0.24057 -0.16085,0.33451 -0.16023,0.77478 6.6e-4,0.39938 0.0264,0.54885 0.12745,0.73679 0.53078,0.98732 1.85984,1.16358 2.61297,0.34653 0.45131,-0.48962 0.56628,-1.11306 0.3158,-1.71254 z m -0.89927,0.89447 c -0.20512,0.47166 -0.91695,0.49102 -1.15463,0.0314 -0.11859,-0.22932 -0.11247,-0.40547 0.0217,-0.62553 0.21359,-0.35027 0.72911,-0.41089 1.00419,-0.11808 0.144,0.15328 0.21087,0.52329 0.12872,0.71221 z m -5.54049,9.63719 h -5.35743 l -0.0357,0.14219 c -0.0976,0.38905 -0.89146,0.80844 -1.34491,0.71054 -0.70904,-0.15308 -1.08953,-0.66302 -1.03696,-1.38977 0.0479,-0.66226 0.54932,-1.11337 1.23754,-1.11337 0.51635,0 1.0108,0.30728 1.13767,0.707 0.0372,0.11707 0.0848,0.1182 4.98476,0.1182 h 4.94724 v -0.94309 -0.94308 h 0.4126 0.4126 v 1.35569 1.35569 z m -6.2222,-0.73947 c -0.20606,-0.20606 -0.45339,-0.19201 -0.64582,0.0367 -0.19143,0.22751 -0.19404,0.43093 -0.008,0.61706 0.29237,0.29237 0.79841,0.0852 0.79841,-0.32687 0,-0.11484 -0.0535,-0.23567 -0.14467,-0.32686 z m 11.16702,-16.35402 h -0.4126 v -0.94309 -0.94308 h -4.94724 c -4.89991,0 -4.9476,0.001 -4.98476,0.1182 -0.0206,0.065 -0.10533,0.1988 -0.18822,0.2973 -0.52354,0.6222 -1.55352,0.55324 -2.00863,-0.13448 -0.14028,-0.21198 -0.16077,-0.30107 -0.16077,-0.69898 0,-0.41181 0.0172,-0.48051 0.17737,-0.7084 0.35674,-0.50758 1.06208,-0.69099 1.60066,-0.41623 0.24891,0.12699 0.60916,0.50689 0.60916,0.6424 0,0.0601 1.06224,0.075 5.36382,0.075 h 5.36381 v 1.35569 1.35569 z m -11.16702,-2.62564 c -0.27536,-0.27536 -0.71212,-0.1231 -0.776,0.27053 -0.0277,0.17086 -0.006,0.23355 0.12747,0.36697 0.1015,0.1015 0.22422,0.16091 0.33238,0.16091 0.23129,0 0.46082,-0.23487 0.46082,-0.47154 0,-0.11485 -0.0535,-0.23567 -0.14467,-0.32687 z m 2.50879,10.22929 h -1.64402 l -0.0357,0.1422 c -0.0196,0.0782 -0.15722,0.24917 -0.30575,0.37991 -0.58999,0.51933 -1.42931,0.42195 -1.8791,-0.21802 -0.14388,-0.20472 -0.17969,-0.32212 -0.19691,-0.64555 -0.026,-0.48882 0.1352,-0.83629 0.51083,-1.10086 0.33707,-0.23742 0.92779,-0.28233 1.28909,-0.098 0.2453,0.12514 0.60475,0.50563 0.60475,0.64015 0,0.0589 0.35405,0.075 1.65041,0.075 h 1.6504 v 0.4126 0.4126 z m -2.50879,-0.73946 c -0.37514,-0.37514 -0.96235,0.0746 -0.71698,0.54914 0.0501,0.0968 0.13397,0.19251 0.18645,0.21265 0.32009,0.12283 0.6752,-0.10591 0.6752,-0.43493 0,-0.11484 -0.0535,-0.23567 -0.14467,-0.32686 z"
       id="path1"
       sodipodi:nodetypes="cccccccccccccccccccccccccccssssssssssscsssscssscsscsssccsssssscsscsccssccsscssscsscssscssccsssssssccssssscssssscscssscsssssccccscssscccsscssscscsssssscssssccscsccssssssssccssssssccccccccssssssccccsssssssssccccssssssccssssssssccccsscss" /></g></svg>
